<svg xmlns="http://www.w3.org/2000/svg" style="display:none" aria-hidden="true">
  <!-- Lunga V1 icon set — standalone 1.6px line icons, never inside coloured boxes -->
  <symbol id="i-check" viewBox="0 0 24 24"><path d="M4.5 12.5l4.5 4.5L19.5 6.5" stroke-linecap="round" stroke-linejoin="round"/></symbol>
  <symbol id="i-doc" viewBox="0 0 24 24"><path d="M7 3.5h6.5l4 4V20.5H7z" stroke-linejoin="round"/><path d="M13.5 3.5v4h4" stroke-linejoin="round"/><path d="M9.5 12.5h5M9.5 15.5h5M9.5 18h3" stroke-linecap="round"/></symbol>
  <symbol id="i-bolt" viewBox="0 0 24 24"><path d="M13 3L6 13.5h4.5L10 21l7-10.5h-4.5L13 3z" stroke-linejoin="round"/></symbol>
  <symbol id="i-shield" viewBox="0 0 24 24"><path d="M12 3l7.5 3v6c0 4.8-3.2 8.5-7.5 9.6-4.3-1.1-7.5-4.8-7.5-9.6V6l7.5-3z" stroke-linejoin="round"/><path d="M8.8 12l2.2 2.2 4.2-4.6" stroke-linecap="round" stroke-linejoin="round"/></symbol>
  <symbol id="i-lock" viewBox="0 0 24 24"><rect x="5.5" y="10.5" width="13" height="10" rx="1.5"/><path d="M8.3 10.5V8.2a3.7 3.7 0 017.4 0v2.3"/><circle cx="12" cy="15" r="1.3" fill="currentColor" stroke="none"/></symbol>
  <symbol id="i-clock" viewBox="0 0 24 24"><circle cx="12" cy="12" r="8.3"/><path d="M12 7.5V12l3 2" stroke-linecap="round"/></symbol>
  <symbol id="i-zar" viewBox="0 0 24 24"><path d="M7 18.5h8M7 5.5l8.5 13M6 12h10" stroke-linecap="round" stroke-linejoin="round"/></symbol>
  <symbol id="i-plus" viewBox="0 0 24 24"><path d="M12 5.5v13M5.5 12h13" stroke-linecap="round" stroke-width="1.9"/></symbol>
  <symbol id="i-x" viewBox="0 0 24 24"><path d="M6.5 6.5l11 11M17.5 6.5l-11 11" stroke-linecap="round" stroke-width="1.9"/></symbol>
  <symbol id="i-arrow" viewBox="0 0 24 24"><path d="M4.5 12h14M13 6.5l5.5 5.5L13 17.5" stroke-linecap="round" stroke-linejoin="round"/></symbol>
  <symbol id="i-arrow-down" viewBox="0 0 24 24"><path d="M12 4.5v14M6 13l6 6 6-6" stroke-linecap="round" stroke-linejoin="round"/></symbol>
  <symbol id="i-send" viewBox="0 0 24 24"><path d="M21 3L3 11l7 2 2 7 9-17z" stroke-linejoin="round"/><path d="M10 13l4-4" stroke-linecap="round"/></symbol>
  <symbol id="i-download" viewBox="0 0 24 24"><path d="M12 3.5v12M6.5 10.5l5.5 5.5 5.5-5.5" stroke-linecap="round" stroke-linejoin="round"/><path d="M4.5 20.5h15" stroke-linecap="round"/></symbol>
</svg>
